#tb 0: 1/1000
0,          0,          0,        0,   152064, 043ce065a309514e1e8ebdcbb3c2458b
0,         33,         33,        0,   152064, 8579c9cffd95b11db86158e518b2e34a
0,         66,         66,        0,   152064, ebbba105e499604f5e69b8aa48fe86f4
0,        100,        100,        0,   152064, b08526fab7e106021f9fb9b1e2d4b725
0,        133,        133,        0,   152064, 92afa561d06f41ccc6d2e2bcc3ab2ee4
0,        166,        166,        0,   152064, 50de8ec2db66c783289a3982dd1c4f97
0,        200,        200,        0,   152064, c2ab55d114b8822adef06ccb093b5ac7
0,        233,        233,        0,   152064, e3ee4edbe8a1f0b5486bbd8a52e7cbcb
0,        266,        266,        0,   152064, fc33fd50566cd64e5b13911ee06c6e24
0,        300,        300,        0,   152064, 05297e847f983a19fe2ba5e05932a110
0,        333,        333,        0,   152064, d21db9adb27be89ab3b7f75d89175e24
0,        367,        367,        0,   152064, 29bb87bdebd078f8dd953a70def6c4dc
0,        400,        400,        0,   152064, c57f7bc772f6143a22edaf926f92de5f
0,        433,        433,        0,   152064, 39f2fc755d4bc2cc5ec077035382be22
0,        467,        467,        0,   152064, 000ec9c75374f6d74a5e61189e6fd782
0,        500,        500,        0,   152064, 3027187c9bdb2a755d14513b7e597bb1
0,        533,        533,        0,   152064, 2b3129659df2b3aa10b9398c50301e00
0,        567,        567,        0,   152064, e23bcacf1cafca9a7959508b33e63907
0,        600,        600,        0,   152064, fe0382dd155284998a0d7eb7effb5adf
0,        633,        633,        0,   152064, e0a487860dd0df3d865971b483fab3e9
0,        667,        667,        0,   152064, 7ca757c55b0ea4779cdfa3a535f8f234
0,        700,        700,        0,   152064, 1a276d27f4ce0e2720e25dbed2e524ae
0,        734,        734,        0,   152064, dd39bc322c8bdce196a9c2129bcb5d6e
0,        767,        767,        0,   152064, 63e295427977d645462e0fb3277ccb53
0,        800,        800,        0,   152064, e9a35655c71da22fb0c7865e0bbc91b8
0,        834,        834,        0,   152064, 5903bcbccabb3366382b37bf08119dde
0,        867,        867,        0,   152064, 3b6ce09353b07b193914a71ca2334d8c
0,        900,        900,        0,   152064, cb3731eb5dbe338125c0a7d6b4bf2868
0,        934,        934,        0,   152064, 0837c62b54912ed06f7f755894ad3f6b
0,        967,        967,        0,   152064, 7f215dc14d8e280fc18ad3fb3122fa58
0,       1001,       1001,        0,   152064, 6dafaf5adc45fead74f0153e3764b17d
0,       1034,       1034,        0,   152064, e19c8274ee6377dbf005f6516a81c413
0,       1067,       1067,        0,   152064, 358cbf29bd136d2f9dcb60ab82a2e9e5
0,       1101,       1101,        0,   152064, 2276d4670ff35c3a76c27c3a5810eea3
0,       1134,       1134,        0,   152064, 636dd3390d4011c377915d7d3acc9ee1
0,       1167,       1167,        0,   152064, 5e7a1ed17d80168567d61987425f4e60
0,       1201,       1201,        0,   152064, c10a4830c5f268888789fccd16c0cc0e
0,       1234,       1234,        0,   152064, 298ef49418d730a031ff23311031c969
0,       1267,       1267,        0,   152064, 4dd2249e13cda0f99fa46786d345c96a
0,       1301,       1301,        0,   152064, 24232dbc6e35a069c60422c4c23dfa51
0,       1334,       1334,        0,   152064, ae8751c5ac168d6aa4499fe69f018ae2
0,       1368,       1368,        0,   152064, 6a3a7e60a569e7415f2c3a1453e4dc38
0,       1401,       1401,        0,   152064, 5475af1c118d1b7cc0a357bc434241a8
0,       1434,       1434,        0,   152064, c6b5ab39e630e66e8f09698fd1dfa160
0,       1468,       1468,        0,   152064, f1c0310adf115456167e3fa790e43dde
0,       1501,       1501,        0,   152064, 3028296307b47d10156fc9657693edc3
0,       1534,       1534,        0,   152064, 0903dabcb8ac707b423b222ac5bb4898
0,       1568,       1568,        0,   152064, 713cf71b994e2c85ed577062814c5732
0,       1601,       1601,        0,   152064, 674f56b9cccf5c9d1f88f68c3996a671
0,       1634,       1634,        0,   152064, f63732c2ff823960d8b62d866dfb5e6a
